<svg width="44" height="51" viewBox="0 0 44 51" fill="none" xmlns="http://www.w3.org/2000/svg">
<path d="M21.9779 14.4818C19.8791 14.4818 16.6304 12.2182 13.2091 12.3C8.69538 12.3545 4.55539 14.7818 2.22663 18.6273C-2.45962 26.3455 1.01913 37.7455 5.59038 44.0182C7.83289 47.0727 10.4779 50.5091 13.9854 50.4C17.3491 50.2636 18.6141 48.3273 22.6966 48.3273C26.7504 48.3273 27.9004 50.4 31.4654 50.3182C35.0879 50.2636 37.3879 47.2091 39.6016 44.1273C42.1604 40.5818 43.2241 37.1455 43.2816 36.9545C43.1954 36.9273 36.2379 34.3909 36.1516 26.7545C36.0941 20.3727 41.6429 17.3182 41.9016 17.1818C38.7391 12.7909 33.8804 12.3 32.1841 12.1909C27.7566 11.8636 24.0479 14.4818 21.9779 14.4818ZM29.4529 8.04545C31.3216 5.91818 32.5579 2.94545 32.2129 0C29.5391 0.109091 26.3191 1.69091 24.3929 3.81818C22.6679 5.7 21.1729 8.72727 21.5754 11.6182C24.5366 11.8364 27.5841 10.1727 29.4529 8.04545Z" fill="#F5F5F7"/>
</svg>
